<?xml version="1.0" standalone="no"?>
<!DOCTYPE svg PUBLIC "-//W3C//DTD SVG 20010904//EN"
 "http://www.w3.org/TR/2001/REC-SVG-20010904/DTD/svg10.dtd">
<svg version="1.0" xmlns="http://www.w3.org/2000/svg"
 width="1950.000000pt" height="1950.000000pt" viewBox="0 0 1950.000000 1950.000000"
 preserveAspectRatio="xMidYMid meet">
<metadata>
Created by potrace 1.11, written by Peter Selinger 2001-2013
</metadata>
<g transform="translate(0.000000,1950.000000) scale(0.100000,-0.100000)"
fill="#000000" stroke="none">
<path d="M9585 19334 c-16 -15 -43 -38 -60 -53 -25 -22 -365 -310 -444 -376
-13 -11 -29 -24 -35 -30 -6 -5 -40 -35 -76 -65 -36 -30 -67 -57 -70 -60 -3 -3
-61 -53 -130 -110 -69 -58 -134 -113 -145 -123 -22 -20 -558 -477 -636 -542
-26 -22 -88 -74 -136 -115 -252 -215 -359 -306 -369 -315 -6 -5 -30 -26 -54
-45 -23 -19 -55 -46 -70 -60 -16 -14 -36 -32 -47 -40 -28 -23 -674 -573 -759
-647 -12 -10 -41 -34 -64 -53 -48 -40 -57 -47 -131 -111 -30 -26 -106 -90
-169 -144 -63 -53 -126 -107 -140 -118 -14 -12 -54 -47 -90 -77 -36 -30 -67
-57 -70 -60 -6 -6 -114 -98 -148 -126 -13 -10 -34 -28 -46 -39 -12 -11 -46
-40 -76 -65 -29 -25 -148 -125 -263 -223 -116 -99 -216 -184 -224 -190 -8 -7
-22 -19 -31 -27 -14 -13 -165 -142 -237 -202 -11 -9 -31 -26 -45 -38 -14 -12
-47 -40 -74 -63 -174 -147 -275 -233 -301 -256 -16 -14 -104 -89 -195 -166
-91 -77 -170 -144 -176 -150 -6 -5 -36 -30 -65 -55 -30 -25 -133 -112 -229
-195 -97 -82 -290 -247 -430 -365 -139 -118 -258 -219 -264 -225 -6 -5 -38
-32 -71 -60 -33 -27 -66 -56 -74 -63 -7 -7 -68 -59 -134 -115 -221 -187 -250
-211 -597 -506 -190 -161 -358 -305 -375 -320 -16 -14 -88 -76 -160 -136 -71
-60 -139 -118 -150 -127 -11 -9 -31 -27 -45 -38 -14 -12 -47 -41 -74 -64 -27
-22 -115 -97 -196 -166 -81 -69 -168 -143 -194 -165 -26 -22 -66 -57 -89 -77
l-41 -37 2692 3 2692 3 1 -41 c1 -80 11 -2253 25 -5546 3 -767 7 -1748 9
-2180 6 -1369 7 -2101 2 -2107 -3 -2 -59 -6 -124 -8 -165 -5 -410 -14 -528
-20 -55 -3 -165 -7 -245 -10 -80 -3 -188 -7 -240 -10 -52 -2 -149 -7 -215 -10
-66 -3 -172 -8 -235 -10 -165 -8 -291 -14 -400 -19 -52 -3 -147 -8 -210 -11
-63 -3 -142 -8 -175 -10 -33 -2 -114 -6 -180 -10 -67 -3 -150 -8 -185 -10 -36
-2 -114 -6 -175 -10 -60 -3 -137 -7 -170 -10 -33 -2 -107 -7 -165 -10 -58 -3
-130 -8 -160 -10 -30 -2 -102 -6 -160 -10 -58 -3 -127 -8 -155 -10 -27 -2 -88
-6 -135 -10 -171 -11 -246 -17 -286 -20 -23 -2 -89 -7 -145 -10 -57 -4 -124
-8 -149 -10 -25 -3 -79 -7 -120 -10 -41 -3 -97 -8 -125 -10 -27 -2 -86 -7
-130 -10 -44 -3 -100 -8 -125 -10 -25 -3 -76 -7 -115 -10 -38 -3 -90 -8 -115
-10 -25 -3 -81 -7 -125 -10 -44 -3 -96 -8 -115 -10 -19 -3 -64 -7 -100 -10
-74 -7 -144 -13 -210 -20 -25 -2 -74 -7 -110 -10 -36 -3 -81 -7 -100 -10 -19
-2 -64 -7 -100 -10 -36 -3 -76 -8 -90 -10 -14 -2 -59 -7 -100 -10 -41 -4 -78
-9 -82 -11 -4 -3 -8 -108 -8 -234 l0 -229 357 4 c1434 15 2005 19 3173 19
1687 0 2502 -10 3800 -49 419 -12 1195 -44 1488 -60 46 -3 127 -7 180 -10 189
-10 546 -30 682 -40 36 -2 103 -7 150 -10 112 -7 220 -14 303 -20 37 -3 100
-7 140 -10 39 -3 97 -7 127 -10 30 -2 89 -7 130 -10 41 -3 100 -8 130 -11 30
-2 87 -7 125 -10 39 -3 86 -7 105 -9 19 -1 71 -6 115 -9 73 -6 102 -9 220 -21
44 -5 154 -15 225 -21 25 -2 66 -6 93 -9 26 -3 68 -7 95 -10 107 -10 159 -16
192 -20 19 -3 60 -7 90 -10 30 -3 71 -7 90 -10 19 -2 55 -7 80 -9 25 -3 86
-10 135 -16 50 -6 110 -13 135 -16 25 -3 61 -7 80 -9 19 -3 58 -7 85 -10 28
-4 61 -8 75 -10 14 -2 43 -6 65 -9 22 -3 76 -10 120 -16 44 -6 96 -13 115 -16
47 -5 249 -34 280 -39 14 -2 45 -7 70 -10 25 -3 56 -7 69 -10 13 -2 49 -7 80
-11 31 -3 59 -8 62 -10 4 -2 24 -6 45 -9 22 -3 64 -10 94 -15 30 -5 71 -11 90
-14 19 -3 46 -8 60 -10 14 -3 41 -7 60 -10 19 -3 62 -10 95 -16 33 -6 85 -15
115 -20 30 -6 66 -12 80 -15 14 -3 52 -10 85 -15 33 -6 80 -15 105 -20 25 -5
59 -12 75 -15 17 -3 41 -7 55 -10 14 -2 72 -14 130 -25 58 -12 197 -42 310
-66 113 -25 216 -48 230 -50 61 -12 559 -139 690 -177 l145 -42 1788 -3 1787
-2 0 28 c0 28 -4 30 -107 61 -60 18 -126 39 -148 47 -91 31 -658 186 -733 200
-13 3 -69 16 -125 30 -56 14 -113 27 -127 30 -13 3 -60 14 -105 24 -91 21
-102 24 -200 44 -38 8 -79 17 -90 20 -52 11 -282 58 -300 60 -11 2 -56 10
-100 19 -194 40 -518 99 -625 113 -25 3 -48 8 -51 10 -4 2 -38 8 -75 14 -88
13 -133 20 -164 26 -14 3 -41 7 -60 10 -19 2 -46 7 -60 9 -14 3 -41 8 -60 10
-33 5 -62 10 -220 34 -36 6 -85 13 -110 16 -25 3 -74 10 -110 16 -36 6 -83 13
-105 15 -22 3 -51 7 -65 9 -29 6 -270 39 -440 61 -150 19 -190 24 -220 29 -25
4 -81 11 -167 21 -70 8 -125 15 -153 19 -14 2 -52 6 -85 10 -33 3 -73 7 -90
10 -31 5 -81 11 -170 20 -27 3 -84 10 -125 15 -41 5 -100 12 -130 15 -30 3
-71 8 -90 10 -19 3 -60 7 -90 10 -74 7 -147 15 -190 20 -19 3 -60 7 -90 10
-94 9 -154 16 -180 20 -14 2 -59 7 -100 10 -41 4 -86 8 -100 10 -14 2 -59 7
-100 10 -41 4 -87 8 -102 10 -14 2 -59 6 -100 10 -40 3 -84 8 -98 10 -14 2
-59 7 -100 10 -41 4 -88 8 -105 10 -16 2 -61 7 -100 10 -38 3 -86 8 -105 10
-44 5 -113 12 -210 20 -41 4 -86 8 -100 10 -14 2 -59 7 -101 10 -42 3 -85 7
-95 9 -11 2 -57 7 -104 11 -47 4 -96 9 -110 10 -14 1 -59 6 -100 9 -41 4 -91
9 -110 11 -19 2 -64 7 -100 10 -36 4 -83 8 -105 10 -22 3 -67 7 -100 10 -33 3
-76 8 -95 10 -19 2 -64 7 -100 10 -36 3 -81 8 -100 10 -19 2 -60 7 -90 10 -30
3 -71 8 -90 10 -19 3 -62 7 -95 11 -33 3 -71 7 -85 9 -14 1 -50 6 -80 9 -108
12 -248 31 -315 41 -16 3 -48 7 -70 10 -176 24 -445 81 -445 95 0 8 2071 5
2320 -4 63 -2 228 -7 365 -10 138 -4 295 -9 350 -11 55 -3 165 -7 245 -10 211
-8 373 -15 475 -20 50 -3 135 -7 190 -10 180 -8 514 -27 715 -40 30 -2 100 -6
155 -9 55 -4 125 -8 155 -11 30 -3 98 -7 150 -10 52 -4 115 -8 140 -11 25 -2
79 -6 120 -9 41 -3 98 -7 125 -10 28 -2 93 -7 145 -10 52 -4 106 -8 120 -10
14 -2 63 -7 110 -10 47 -3 96 -7 110 -10 14 -2 66 -6 115 -10 50 -3 101 -8
115 -10 14 -2 54 -7 90 -10 36 -3 85 -8 110 -10 25 -3 72 -7 105 -10 98 -9
158 -15 195 -20 49 -6 114 -13 195 -20 39 -3 81 -8 95 -10 14 -3 52 -7 85 -10
33 -3 71 -8 85 -10 14 -3 53 -7 88 -10 35 -4 72 -8 83 -10 11 -2 50 -7 87 -11
37 -3 69 -7 72 -9 3 -2 39 -6 80 -10 41 -4 84 -9 95 -11 11 -2 46 -7 77 -10
32 -3 68 -7 80 -10 13 -2 43 -7 68 -10 25 -3 56 -7 70 -9 14 -2 48 -7 75 -10
51 -7 78 -10 130 -19 17 -3 83 -12 147 -21 65 -9 126 -18 136 -20 11 -2 43 -6
73 -10 30 -4 56 -8 59 -10 3 -2 28 -6 55 -9 28 -4 79 -12 115 -17 36 -6 79
-13 95 -15 17 -3 57 -10 90 -16 33 -5 69 -11 80 -13 11 -1 52 -8 90 -14 39 -7
84 -14 100 -17 17 -3 64 -11 105 -19 41 -8 116 -21 165 -30 181 -33 250 -46
263 -50 9 -4 12 69 12 339 0 267 -3 343 -12 343 -7 0 -76 10 -153 22 -165 26
-176 27 -235 36 -73 11 -92 13 -150 21 -30 4 -64 8 -75 9 -24 4 -173 23 -230
30 -38 5 -231 29 -325 40 -25 3 -52 8 -60 10 -8 2 -47 6 -85 9 -39 4 -80 8
-90 10 -11 2 -49 7 -85 10 -36 4 -76 9 -90 11 -14 2 -52 7 -85 10 -81 7 -153
15 -195 20 -32 4 -72 8 -190 20 -25 3 -85 9 -135 15 -49 5 -117 12 -150 15
-33 3 -73 8 -90 10 -16 2 -59 6 -95 10 -36 3 -81 8 -100 9 -19 2 -66 7 -105
10 -38 4 -88 9 -110 11 -22 2 -76 7 -120 10 -44 3 -102 8 -130 10 -27 3 -86 7
-130 10 -44 3 -112 8 -150 11 -39 3 -107 7 -150 9 -44 3 -123 7 -175 10 -225
13 -261 14 -370 20 -397 18 -587 25 -1090 40 -880 25 -1286 30 -2935 29 -1492
0 -1843 -3 -2655 -19 -135 -3 -355 -7 -490 -10 -215 -4 -481 -11 -732 -19 -48
-1 -79 2 -81 8 -2 6 -3 290 -1 631 1 341 5 1529 8 2640 4 1111 9 2718 12 3570
2 853 6 2109 8 2792 l4 1242 -1736 -5 -1737 -4 25 22 c22 20 209 178 714 602
145 121 215 180 252 213 12 10 42 34 65 55 24 20 108 90 185 155 78 66 166
139 195 164 29 24 69 58 88 75 20 17 92 78 161 135 69 58 167 141 219 185 146
123 232 195 453 381 113 94 211 178 219 185 8 7 109 92 224 188 116 96 212
177 215 180 3 3 88 76 190 161 102 84 187 156 190 160 3 3 61 52 130 109 69
58 127 107 130 110 3 3 88 75 190 160 171 143 225 188 254 215 6 6 47 40 91
75 44 36 85 70 90 76 6 6 82 71 170 145 150 125 459 385 515 433 14 11 50 41
80 66 30 25 57 47 60 50 3 3 106 91 230 195 329 276 345 289 348 298 8 16 35
5 94 -40 35 -27 65 -51 68 -54 3 -3 104 -82 225 -176 121 -95 322 -252 447
-350 339 -266 563 -442 639 -500 37 -29 76 -59 86 -67 21 -18 396 -312 434
-341 66 -50 244 -190 249 -195 3 -3 106 -84 230 -180 124 -96 234 -183 245
-192 11 -9 110 -87 220 -173 110 -85 214 -166 230 -179 17 -13 140 -110 275
-216 135 -105 259 -202 275 -215 17 -14 116 -91 220 -173 423 -330 811 -634
830 -650 12 -9 50 -39 85 -67 36 -27 72 -55 80 -62 8 -7 301 -236 649 -509
l635 -496 540 2 c1269 5 1401 7 1397 16 -3 8 -151 126 -341 273 -72 56 -794
617 -855 665 -49 39 -545 425 -615 480 -90 69 -392 304 -410 319 -8 7 -44 35
-80 62 -36 27 -72 55 -80 62 -13 11 -82 65 -215 169 -16 12 -100 77 -185 144
-271 211 -405 314 -420 327 -8 7 -72 57 -141 110 -141 110 -516 401 -539 420
-34 26 -238 186 -396 308 -92 72 -204 158 -248 193 -45 35 -94 74 -111 87 -16
12 -160 125 -320 249 -159 124 -341 265 -403 314 -63 48 -119 92 -125 97 -7 6
-145 114 -307 240 -162 126 -302 235 -310 242 -8 6 -73 57 -145 113 -71 55
-137 107 -146 114 -8 7 -40 31 -70 53 -30 23 -101 78 -159 124 -58 45 -134
105 -170 132 -36 28 -85 67 -110 86 -24 20 -51 41 -60 48 -8 6 -49 38 -90 70
-41 33 -124 97 -185 143 -117 90 -118 91 -152 118 -12 10 -55 44 -95 75 -129
100 -332 258 -363 283 -243 190 -377 294 -378 294 -1 0 -15 -12 -32 -26z"/>
<path d="M13714 17553 l1 -1036 90 -68 c50 -38 95 -72 100 -77 6 -4 102 -77
214 -162 113 -84 212 -159 220 -166 9 -7 138 -105 286 -216 304 -229 513 -387
535 -405 20 -16 416 -314 441 -332 18 -13 19 -11 19 40 1 68 1 3300 0 3392 l0
67 -954 0 -954 0 2 -1037z"/>
<path d="M8403 15232 l-33 -3 0 -480 c0 -263 3 -479 8 -480 10 -1 900 -1 932
0 l25 1 0 480 0 480 -25 1 c-98 2 -882 3 -907 1z"/>
<path d="M9703 15232 c-19 -3 -23 -10 -23 -40 -3 -227 1 -917 5 -920 7 -7 940
-7 951 0 7 5 12 930 5 958 -1 5 -901 7 -938 2z"/>
<path d="M8398 13922 l-28 -3 0 -479 c0 -373 3 -479 13 -482 20 -6 932 -3 942
4 12 7 14 942 3 954 -7 6 -876 12 -930 6z"/>
<path d="M9697 13922 c-19 -4 -18 36 -17 -581 0 -206 3 -377 5 -380 7 -6 945
-8 954 -1 11 8 7 960 -4 961 -37 2 -925 3 -938 1z"/>
<path d="M8560 10712 l-25 -3 2 -3977 c1 -2187 2 -3986 2 -3998 l1 -21 1098 1
1097 1 3 3998 2 3997 -27 0 c-137 3 -2134 4 -2153 2z"/>
</g>
</svg>
